<?xml version="1.0" encoding="utf-8"?>
<!-- Generator: Adobe Illustrator 18.1.1, SVG Export Plug-In . SVG Version: 6.00 Build 0)  -->
<svg version="1.1" id="Layer_1" xmlns="http://www.w3.org/2000/svg" xmlns:xlink="http://www.w3.org/1999/xlink" x="0px" y="0px"
	 viewBox="0 0 44.8 36.5" enable-background="new 0 0 44.8 36.5" xml:space="preserve">
<g>
	<path fill="#FFFFFF" d="M5.1,9c3,0,5.5,2.4,5.5,5.5c0,1.1-0.3,2.2-1,3.1c1.4,1,2.2,2.7,2.2,4.5c0,3.1-2.5,5.6-5.6,5.6H0V9H5.1z
		 M4.9,16.4c1,0,2.2-0.9,2.2-2.2c0-1.3-1.1-2.1-2.2-2.1H3.3v4.3H4.9z M6.1,24.4c1.3,0,2.3-1,2.3-2.2c0-1.3-1-2.3-2.3-2.3H3.4v4.5
		H6.1z"/>
	<g>
		<g>
			<g>
				<path fill="#C0C12F" stroke="#C0C12F" stroke-width="0.25" stroke-miterlimit="10" d="M27.1,21.6L18.2,9h17.9L27.1,21.6z
					 M18.8,9.3l8.3,11.7l8.3-11.7H18.8z"/>
			</g>
		</g>
	</g>
	<polygon fill="#FFFFFF" stroke="#FFFFFF" stroke-width="0.25" stroke-miterlimit="10" points="44.8,36.5 35.4,36.5 27.1,24.9 
		18.9,36.5 11.8,36.5 11.8,36 18.6,36 27.1,24.1 35.6,36 43.9,36 31.2,18.3 43.9,0.5 35.6,0.5 27.1,12.5 18.6,0.5 11.8,0.5 11.8,0 
		18.9,0 27.1,11.6 35.4,0 44.8,0 31.8,18.3 	"/>
	<g>
		<g>
			<g>
				<path fill="#077E7D" stroke="#077E7D" stroke-width="0.25" stroke-miterlimit="10" d="M36.1,27.6H18.2l9-12.6L36.1,27.6z
					 M18.8,27.3h16.7l-8.3-11.7L18.8,27.3z"/>
			</g>
		</g>
	</g>
	<rect x="14.3" y="9" fill="#FFFFFF" width="4" height="18.6"/>
</g>
</svg>
